<mxfile host="" modified="2020-06-10T06:30:42.003Z" agent="5.0 (X11; Linux x86_64) AppleWebKit/537.36 (KHTML, like Gecko) Code/1.45.1 Chrome/78.0.3904.130 Electron/7.2.4 Safari/537.36" etag="BkDwc8Hxpw3SLNALAR-F" version="13.1.3">
    <diagram id="6hGFLwfOUW9BJ-s0fimq" name="Page-1">
        <mxGraphModel dx="738" dy="612" grid="1" gridSize="10" guides="1" tooltips="1" connect="1" arrows="1" fold="1" page="1" pageScale="1" pageWidth="827" pageHeight="1169" math="0" shadow="0">
            <root>
                <mxCell id="0"/>
                <mxCell id="1" parent="0"/>
                <mxCell id="17" value="" style="group" parent="1" vertex="1" connectable="0">
                    <mxGeometry x="14" y="120" width="240" height="60" as="geometry"/>
                </mxCell>
                <mxCell id="12" value="Producer" style="text;html=1;align=center;verticalAlign=middle;resizable=0;points=[];autosize=1;" parent="17" vertex="1">
                    <mxGeometry width="60" height="20" as="geometry"/>
                </mxCell>
                <mxCell id="11" value="&lt;u&gt;PName&lt;/u&gt;" style="rounded=0;whiteSpace=wrap;html=1;" parent="17" vertex="1">
                    <mxGeometry y="20" width="80" height="40" as="geometry"/>
                </mxCell>
                <mxCell id="13" value="Country" style="rounded=0;whiteSpace=wrap;html=1;" parent="17" vertex="1">
                    <mxGeometry x="80" y="20" width="80" height="40" as="geometry"/>
                </mxCell>
                <mxCell id="14" value="Founded" style="rounded=0;whiteSpace=wrap;html=1;" parent="17" vertex="1">
                    <mxGeometry x="160" y="20" width="80" height="40" as="geometry"/>
                </mxCell>
                <mxCell id="18" value="" style="group" parent="1" vertex="1" connectable="0">
                    <mxGeometry x="10" y="210" width="240" height="60" as="geometry"/>
                </mxCell>
                <mxCell id="19" value="Director" style="text;html=1;align=center;verticalAlign=middle;resizable=0;points=[];autosize=1;" parent="18" vertex="1">
                    <mxGeometry width="60" height="20" as="geometry"/>
                </mxCell>
                <mxCell id="20" value="&lt;u&gt;DName&lt;/u&gt;" style="rounded=0;whiteSpace=wrap;html=1;" parent="18" vertex="1">
                    <mxGeometry y="20" width="80" height="40" as="geometry"/>
                </mxCell>
                <mxCell id="21" value="Sex" style="rounded=0;whiteSpace=wrap;html=1;" parent="18" vertex="1">
                    <mxGeometry x="80" y="20" width="80" height="40" as="geometry"/>
                </mxCell>
                <mxCell id="22" value="BDate" style="rounded=0;whiteSpace=wrap;html=1;" parent="18" vertex="1">
                    <mxGeometry x="160" y="20" width="80" height="40" as="geometry"/>
                </mxCell>
                <mxCell id="23" value="" style="group" parent="1" vertex="1" connectable="0">
                    <mxGeometry x="10" y="290" width="240" height="60" as="geometry"/>
                </mxCell>
                <mxCell id="24" value="User" style="text;html=1;align=center;verticalAlign=middle;resizable=0;points=[];autosize=1;" parent="23" vertex="1">
                    <mxGeometry x="10" width="40" height="20" as="geometry"/>
                </mxCell>
                <mxCell id="25" value="&lt;u&gt;id&lt;/u&gt;" style="rounded=0;whiteSpace=wrap;html=1;" parent="23" vertex="1">
                    <mxGeometry y="20" width="80" height="40" as="geometry"/>
                </mxCell>
                <mxCell id="26" value="BDate" style="rounded=0;whiteSpace=wrap;html=1;" parent="23" vertex="1">
                    <mxGeometry x="80" y="20" width="80" height="40" as="geometry"/>
                </mxCell>
                <mxCell id="27" value="Sex" style="rounded=0;whiteSpace=wrap;html=1;" parent="23" vertex="1">
                    <mxGeometry x="160" y="20" width="80" height="40" as="geometry"/>
                </mxCell>
                <mxCell id="28" value="" style="group" parent="1" vertex="1" connectable="0">
                    <mxGeometry x="10" y="370" width="240" height="60" as="geometry"/>
                </mxCell>
                <mxCell id="29" value="Platform" style="text;html=1;align=center;verticalAlign=middle;resizable=0;points=[];autosize=1;" parent="28" vertex="1">
                    <mxGeometry width="60" height="20" as="geometry"/>
                </mxCell>
                <mxCell id="30" value="&lt;u&gt;Plat_Name&lt;/u&gt;" style="rounded=0;whiteSpace=wrap;html=1;" parent="28" vertex="1">
                    <mxGeometry y="20" width="80" height="40" as="geometry"/>
                </mxCell>
                <mxCell id="31" value="official_web" style="rounded=0;whiteSpace=wrap;html=1;" parent="28" vertex="1">
                    <mxGeometry x="80" y="20" width="80" height="40" as="geometry"/>
                </mxCell>
                <mxCell id="32" value="category" style="rounded=0;whiteSpace=wrap;html=1;" parent="28" vertex="1">
                    <mxGeometry x="160" y="20" width="80" height="40" as="geometry"/>
                </mxCell>
                <mxCell id="39" value="" style="group" parent="1" vertex="1" connectable="0">
                    <mxGeometry x="320" y="230" width="160" height="60" as="geometry"/>
                </mxCell>
                <mxCell id="35" value="Love" style="text;html=1;align=center;verticalAlign=middle;resizable=0;points=[];autosize=1;" parent="39" vertex="1">
                    <mxGeometry x="10" width="40" height="20" as="geometry"/>
                </mxCell>
                <mxCell id="36" value="&lt;u&gt;user_id&lt;/u&gt;" style="rounded=0;whiteSpace=wrap;html=1;" parent="39" vertex="1">
                    <mxGeometry y="20" width="80" height="40" as="geometry"/>
                </mxCell>
                <mxCell id="37" value="&lt;u&gt;Mname&lt;/u&gt;" style="rounded=0;whiteSpace=wrap;html=1;" parent="39" vertex="1">
                    <mxGeometry x="80" y="20" width="80" height="40" as="geometry"/>
                </mxCell>
                <mxCell id="45" value="" style="group" parent="1" vertex="1" connectable="0">
                    <mxGeometry x="320" y="150" width="160" height="60" as="geometry"/>
                </mxCell>
                <mxCell id="46" value="Dislike" style="text;html=1;align=center;verticalAlign=middle;resizable=0;points=[];autosize=1;" parent="45" vertex="1">
                    <mxGeometry x="5" width="50" height="20" as="geometry"/>
                </mxCell>
                <mxCell id="47" value="&lt;u&gt;user_id&lt;/u&gt;" style="rounded=0;whiteSpace=wrap;html=1;" parent="45" vertex="1">
                    <mxGeometry y="20" width="80" height="40" as="geometry"/>
                </mxCell>
                <mxCell id="48" value="&lt;u&gt;Mname&lt;/u&gt;" style="rounded=0;whiteSpace=wrap;html=1;" parent="45" vertex="1">
                    <mxGeometry x="80" y="20" width="80" height="40" as="geometry"/>
                </mxCell>
                <mxCell id="49" value="" style="endArrow=none;html=1;exitX=0.5;exitY=0;exitDx=0;exitDy=0;entryX=0.5;entryY=1;entryDx=0;entryDy=0;" parent="1" source="25" target="36" edge="1">
                    <mxGeometry width="50" height="50" relative="1" as="geometry">
                        <mxPoint x="230" y="340" as="sourcePoint"/>
                        <mxPoint x="280" y="290" as="targetPoint"/>
                    </mxGeometry>
                </mxCell>
                <mxCell id="52" value="" style="endArrow=none;html=1;entryX=0.5;entryY=1;entryDx=0;entryDy=0;exitX=0.5;exitY=0;exitDx=0;exitDy=0;" parent="1" source="25" target="47" edge="1">
                    <mxGeometry width="50" height="50" relative="1" as="geometry">
                        <mxPoint x="230" y="340" as="sourcePoint"/>
                        <mxPoint x="280" y="290" as="targetPoint"/>
                        <Array as="points">
                            <mxPoint x="290" y="270"/>
                        </Array>
                    </mxGeometry>
                </mxCell>
                <mxCell id="53" value="" style="endArrow=none;html=1;entryX=0.5;entryY=0;entryDx=0;entryDy=0;exitX=0.5;exitY=1;exitDx=0;exitDy=0;" parent="1" source="2" target="48" edge="1">
                    <mxGeometry width="50" height="50" relative="1" as="geometry">
                        <mxPoint x="230" y="340" as="sourcePoint"/>
                        <mxPoint x="280" y="290" as="targetPoint"/>
                    </mxGeometry>
                </mxCell>
                <mxCell id="54" value="" style="endArrow=none;html=1;entryX=0.5;entryY=0;entryDx=0;entryDy=0;exitX=0.5;exitY=1;exitDx=0;exitDy=0;" parent="1" source="2" target="37" edge="1">
                    <mxGeometry width="50" height="50" relative="1" as="geometry">
                        <mxPoint x="230" y="340" as="sourcePoint"/>
                        <mxPoint x="280" y="290" as="targetPoint"/>
                        <Array as="points">
                            <mxPoint x="510" y="140"/>
                            <mxPoint x="500" y="220"/>
                        </Array>
                    </mxGeometry>
                </mxCell>
                <mxCell id="64" value="" style="group" parent="1" vertex="1" connectable="0">
                    <mxGeometry x="320" y="310" width="160" height="60" as="geometry"/>
                </mxCell>
                <mxCell id="60" value="" style="group" parent="64" vertex="1" connectable="0">
                    <mxGeometry width="160" height="60" as="geometry"/>
                </mxCell>
                <mxCell id="61" value="Available" style="text;html=1;align=center;verticalAlign=middle;resizable=0;points=[];autosize=1;" parent="60" vertex="1">
                    <mxGeometry width="60" height="20" as="geometry"/>
                </mxCell>
                <mxCell id="62" value="&lt;u&gt;Pname&lt;/u&gt;" style="rounded=0;whiteSpace=wrap;html=1;" parent="60" vertex="1">
                    <mxGeometry y="20" width="80" height="40" as="geometry"/>
                </mxCell>
                <mxCell id="63" value="&lt;u&gt;Mname&lt;/u&gt;" style="rounded=0;whiteSpace=wrap;html=1;" parent="60" vertex="1">
                    <mxGeometry x="80" y="20" width="80" height="40" as="geometry"/>
                </mxCell>
                <mxCell id="65" value="" style="endArrow=none;html=1;exitX=0.5;exitY=0;exitDx=0;exitDy=0;entryX=0.5;entryY=1;entryDx=0;entryDy=0;" parent="1" source="30" target="62" edge="1">
                    <mxGeometry width="50" height="50" relative="1" as="geometry">
                        <mxPoint x="250" y="340" as="sourcePoint"/>
                        <mxPoint x="300" y="290" as="targetPoint"/>
                    </mxGeometry>
                </mxCell>
                <mxCell id="66" value="" style="endArrow=none;html=1;entryX=0.5;entryY=0;entryDx=0;entryDy=0;exitX=0.5;exitY=1;exitDx=0;exitDy=0;" parent="1" source="2" target="63" edge="1">
                    <mxGeometry width="50" height="50" relative="1" as="geometry">
                        <mxPoint x="240" y="340" as="sourcePoint"/>
                        <mxPoint x="290" y="290" as="targetPoint"/>
                        <Array as="points">
                            <mxPoint x="560" y="120"/>
                            <mxPoint x="540" y="270"/>
                        </Array>
                    </mxGeometry>
                </mxCell>
                <mxCell id="76" value="" style="group" parent="1" vertex="1" connectable="0">
                    <mxGeometry x="320" y="400" width="240" height="60" as="geometry"/>
                </mxCell>
                <mxCell id="67" value="" style="group" parent="76" vertex="1" connectable="0">
                    <mxGeometry width="160" height="60" as="geometry"/>
                </mxCell>
                <mxCell id="68" value="Produced" style="text;html=1;align=center;verticalAlign=middle;resizable=0;points=[];autosize=1;" parent="67" vertex="1">
                    <mxGeometry x="-5" width="70" height="20" as="geometry"/>
                </mxCell>
                <mxCell id="69" value="&lt;u&gt;ProdName&lt;/u&gt;" style="rounded=0;whiteSpace=wrap;html=1;" parent="67" vertex="1">
                    <mxGeometry y="20" width="80" height="40" as="geometry"/>
                </mxCell>
                <mxCell id="70" value="&lt;u&gt;MNAME&lt;/u&gt;" style="rounded=0;whiteSpace=wrap;html=1;" parent="67" vertex="1">
                    <mxGeometry x="80" y="20" width="80" height="40" as="geometry"/>
                </mxCell>
                <mxCell id="75" value="&lt;u&gt;DNAME&lt;/u&gt;" style="rounded=0;whiteSpace=wrap;html=1;" parent="76" vertex="1">
                    <mxGeometry x="160" y="20" width="80" height="40" as="geometry"/>
                </mxCell>
                <mxCell id="77" value="" style="endArrow=none;html=1;entryX=0.5;entryY=1;entryDx=0;entryDy=0;exitX=0.5;exitY=1;exitDx=0;exitDy=0;" parent="1" source="11" target="69" edge="1">
                    <mxGeometry width="50" height="50" relative="1" as="geometry">
                        <mxPoint x="240" y="340" as="sourcePoint"/>
                        <mxPoint x="290" y="290" as="targetPoint"/>
                        <Array as="points">
                            <mxPoint x="260" y="200"/>
                            <mxPoint x="280" y="340"/>
                            <mxPoint x="300" y="500"/>
                        </Array>
                    </mxGeometry>
                </mxCell>
                <mxCell id="79" value="" style="endArrow=none;html=1;exitX=0.5;exitY=0;exitDx=0;exitDy=0;entryX=0.5;entryY=1;entryDx=0;entryDy=0;" parent="1" source="70" target="2" edge="1">
                    <mxGeometry width="50" height="50" relative="1" as="geometry">
                        <mxPoint x="260" y="340" as="sourcePoint"/>
                        <mxPoint x="310" y="290" as="targetPoint"/>
                        <Array as="points">
                            <mxPoint x="570" y="320"/>
                            <mxPoint x="570" y="210"/>
                            <mxPoint x="570" y="100"/>
                        </Array>
                    </mxGeometry>
                </mxCell>
                <mxCell id="80" value="" style="endArrow=none;html=1;entryX=0.5;entryY=1;entryDx=0;entryDy=0;exitX=0.5;exitY=1;exitDx=0;exitDy=0;" parent="1" source="20" target="75" edge="1">
                    <mxGeometry width="50" height="50" relative="1" as="geometry">
                        <mxPoint x="290" y="340" as="sourcePoint"/>
                        <mxPoint x="340" y="290" as="targetPoint"/>
                        <Array as="points">
                            <mxPoint x="270" y="290"/>
                            <mxPoint x="280" y="530"/>
                            <mxPoint x="430" y="530"/>
                        </Array>
                    </mxGeometry>
                </mxCell>
                <mxCell id="82" value="" style="group" vertex="1" connectable="0" parent="1">
                    <mxGeometry x="9" y="40" width="485" height="60" as="geometry"/>
                </mxCell>
                <mxCell id="81" value="Movie_image" style="rounded=0;whiteSpace=wrap;html=1;" vertex="1" parent="82">
                    <mxGeometry x="405" y="20" width="80" height="40" as="geometry"/>
                </mxCell>
                <mxCell id="2" value="&lt;u&gt;Movie_Name&lt;/u&gt;" style="rounded=0;whiteSpace=wrap;html=1;" parent="82" vertex="1">
                    <mxGeometry x="5" y="20" width="80" height="40" as="geometry"/>
                </mxCell>
                <mxCell id="3" value="Movie" style="text;html=1;align=center;verticalAlign=middle;resizable=0;points=[];autosize=1;" parent="82" vertex="1">
                    <mxGeometry width="50" height="20" as="geometry"/>
                </mxCell>
                <mxCell id="4" value="Rating" style="rounded=0;whiteSpace=wrap;html=1;" parent="82" vertex="1">
                    <mxGeometry x="85" y="20" width="80" height="40" as="geometry"/>
                </mxCell>
                <mxCell id="5" value="Tomato_score" style="rounded=0;whiteSpace=wrap;html=1;" parent="82" vertex="1">
                    <mxGeometry x="165" y="20" width="80" height="40" as="geometry"/>
                </mxCell>
                <mxCell id="6" value="IMDB_score" style="rounded=0;whiteSpace=wrap;html=1;" parent="82" vertex="1">
                    <mxGeometry x="245" y="20" width="80" height="40" as="geometry"/>
                </mxCell>
                <mxCell id="7" value="World_Box" style="rounded=0;whiteSpace=wrap;html=1;" parent="82" vertex="1">
                    <mxGeometry x="325" y="20" width="80" height="40" as="geometry"/>
                </mxCell>
            </root>
        </mxGraphModel>
    </diagram>
</mxfile>